<svg xmlns="http://www.w3.org/2000/svg" xmlns:xlink="http://www.w3.org/1999/xlink" width="1080" zoomAndPan="magnify" viewBox="0 0 810 809.999993" height="1080" preserveAspectRatio="xMidYMid meet" version="1.0"><path fill="#f0c0bf" d="M 293.207031 303.386719 C 293.230469 302.039062 293.265625 300.691406 293.324219 299.339844 C 297.003906 207.675781 379.457031 141.710938 462.671875 127.007812 C 576.839844 106.835938 728.46875 182.308594 701.914062 316.84375 C 687.695312 388.871094 636.65625 454.167969 564.386719 474.167969 C 544.460938 479.683594 521.945312 483.234375 501.238281 483.234375 C 457.921875 483.234375 423.746094 460.710938 383.90625 489.488281 C 372.257812 497.898438 360.203125 527.441406 341.722656 520.929688 C 328.21875 516.175781 325.386719 488.789062 324.472656 477.371094 C 319.765625 418.765625 292.164062 362.394531 293.207031 303.386719 Z M 293.207031 303.386719 " fill-opacity="1" fill-rule="nonzero"/><path fill="#ffffff" d="M 623.460938 304.277344 C 623.460938 305.152344 623.417969 306.023438 623.332031 306.890625 C 623.246094 307.757812 623.117188 308.621094 622.949219 309.476562 C 622.777344 310.335938 622.566406 311.179688 622.3125 312.015625 C 622.058594 312.851562 621.765625 313.671875 621.433594 314.476562 C 621.097656 315.285156 620.726562 316.074219 620.3125 316.84375 C 619.902344 317.613281 619.453125 318.359375 618.96875 319.085938 C 618.484375 319.8125 617.964844 320.511719 617.410156 321.1875 C 616.855469 321.863281 616.273438 322.507812 615.65625 323.125 C 615.039062 323.742188 614.390625 324.328125 613.71875 324.882812 C 613.042969 325.4375 612.34375 325.957031 611.617188 326.441406 C 610.890625 326.925781 610.144531 327.375 609.371094 327.785156 C 608.601562 328.195312 607.816406 328.570312 607.007812 328.902344 C 606.203125 329.238281 605.382812 329.53125 604.546875 329.785156 C 603.710938 330.039062 602.863281 330.25 602.007812 330.421875 C 601.152344 330.589844 600.289062 330.71875 599.421875 330.804688 C 598.554688 330.890625 597.683594 330.933594 596.808594 330.933594 C 595.9375 330.933594 595.066406 330.890625 594.199219 330.804688 C 593.328125 330.71875 592.464844 330.589844 591.609375 330.421875 C 590.753906 330.25 589.910156 330.039062 589.074219 329.785156 C 588.238281 329.53125 587.417969 329.238281 586.609375 328.902344 C 585.804688 328.570312 585.015625 328.195312 584.246094 327.785156 C 583.476562 327.375 582.730469 326.925781 582.003906 326.441406 C 581.277344 325.957031 580.578125 325.4375 579.902344 324.882812 C 579.226562 324.328125 578.582031 323.742188 577.964844 323.125 C 577.347656 322.507812 576.761719 321.863281 576.207031 321.1875 C 575.65625 320.511719 575.136719 319.8125 574.652344 319.085938 C 574.164062 318.359375 573.71875 317.613281 573.304688 316.84375 C 572.894531 316.074219 572.523438 315.285156 572.1875 314.476562 C 571.855469 313.671875 571.558594 312.851562 571.308594 312.015625 C 571.054688 311.179688 570.839844 310.335938 570.671875 309.476562 C 570.5 308.621094 570.375 307.757812 570.289062 306.890625 C 570.203125 306.023438 570.160156 305.152344 570.160156 304.277344 C 570.160156 303.40625 570.203125 302.535156 570.289062 301.664062 C 570.375 300.796875 570.5 299.933594 570.671875 299.078125 C 570.839844 298.222656 571.054688 297.375 571.308594 296.539062 C 571.558594 295.703125 571.855469 294.882812 572.1875 294.078125 C 572.523438 293.269531 572.894531 292.484375 573.304688 291.710938 C 573.71875 290.941406 574.164062 290.195312 574.652344 289.46875 C 575.136719 288.742188 575.65625 288.042969 576.207031 287.367188 C 576.761719 286.691406 577.347656 286.046875 577.964844 285.429688 C 578.582031 284.8125 579.226562 284.226562 579.902344 283.671875 C 580.578125 283.121094 581.277344 282.601562 582.003906 282.113281 C 582.730469 281.628906 583.476562 281.183594 584.246094 280.769531 C 585.015625 280.359375 585.804688 279.984375 586.609375 279.652344 C 587.417969 279.316406 588.238281 279.023438 589.074219 278.769531 C 589.910156 278.515625 590.753906 278.304688 591.609375 278.136719 C 592.464844 277.964844 593.328125 277.835938 594.199219 277.75 C 595.066406 277.664062 595.9375 277.625 596.808594 277.621094 C 597.683594 277.625 598.554688 277.664062 599.421875 277.75 C 600.289062 277.835938 601.152344 277.964844 602.007812 278.136719 C 602.863281 278.304688 603.710938 278.515625 604.546875 278.769531 C 605.382812 279.023438 606.203125 279.316406 607.007812 279.652344 C 607.816406 279.984375 608.601562 280.359375 609.371094 280.769531 C 610.144531 281.183594 610.890625 281.628906 611.617188 282.113281 C 612.34375 282.601562 613.042969 283.121094 613.71875 283.671875 C 614.390625 284.226562 615.039062 284.8125 615.65625 285.429688 C 616.273438 286.046875 616.855469 286.691406 617.410156 287.367188 C 617.964844 288.042969 618.484375 288.742188 618.96875 289.46875 C 619.453125 290.195312 619.902344 290.941406 620.3125 291.710938 C 620.726562 292.484375 621.097656 293.269531 621.433594 294.078125 C 621.765625 294.882812 622.058594 295.703125 622.3125 296.539062 C 622.566406 297.375 622.777344 298.222656 622.949219 299.078125 C 623.117188 299.933594 623.246094 300.796875 623.332031 301.664062 C 623.417969 302.535156 623.460938 303.40625 623.460938 304.277344 Z M 623.460938 304.277344 " fill-opacity="1" fill-rule="nonzero"/><path fill="#ffffff" d="M 529.324219 304.277344 C 529.324219 305.152344 529.28125 306.023438 529.195312 306.890625 C 529.109375 307.757812 528.984375 308.621094 528.8125 309.476562 C 528.640625 310.335938 528.429688 311.179688 528.175781 312.015625 C 527.921875 312.851562 527.628906 313.671875 527.296875 314.480469 C 526.960938 315.285156 526.589844 316.074219 526.175781 316.84375 C 525.765625 317.613281 525.316406 318.363281 524.832031 319.085938 C 524.347656 319.8125 523.828125 320.515625 523.273438 321.1875 C 522.722656 321.863281 522.136719 322.511719 521.519531 323.128906 C 520.902344 323.746094 520.253906 324.332031 519.582031 324.882812 C 518.90625 325.4375 518.203125 325.957031 517.480469 326.441406 C 516.753906 326.925781 516.003906 327.375 515.234375 327.789062 C 514.464844 328.199219 513.679688 328.570312 512.871094 328.90625 C 512.066406 329.238281 511.242188 329.535156 510.410156 329.785156 C 509.574219 330.039062 508.726562 330.253906 507.871094 330.421875 C 507.015625 330.59375 506.152344 330.722656 505.285156 330.804688 C 504.414062 330.890625 503.542969 330.933594 502.671875 330.933594 C 501.800781 330.933594 500.929688 330.890625 500.058594 330.804688 C 499.191406 330.722656 498.328125 330.59375 497.472656 330.421875 C 496.617188 330.253906 495.769531 330.039062 494.933594 329.785156 C 494.097656 329.535156 493.277344 329.238281 492.472656 328.90625 C 491.664062 328.570312 490.878906 328.199219 490.109375 327.789062 C 489.335938 327.375 488.589844 326.925781 487.863281 326.441406 C 487.136719 325.957031 486.4375 325.4375 485.761719 324.882812 C 485.089844 324.332031 484.441406 323.746094 483.824219 323.128906 C 483.207031 322.511719 482.621094 321.863281 482.070312 321.1875 C 481.515625 320.515625 480.996094 319.8125 480.511719 319.085938 C 480.027344 318.363281 479.578125 317.613281 479.164062 316.84375 C 478.753906 316.074219 478.382812 315.285156 478.046875 314.480469 C 477.714844 313.671875 477.421875 312.851562 477.167969 312.015625 C 476.914062 311.179688 476.703125 310.335938 476.53125 309.476562 C 476.359375 308.621094 476.234375 307.757812 476.148438 306.890625 C 476.0625 306.023438 476.019531 305.152344 476.019531 304.277344 C 476.019531 303.40625 476.0625 302.535156 476.148438 301.664062 C 476.234375 300.796875 476.359375 299.933594 476.53125 299.078125 C 476.703125 298.222656 476.914062 297.375 477.167969 296.539062 C 477.421875 295.703125 477.714844 294.882812 478.046875 294.078125 C 478.382812 293.269531 478.753906 292.480469 479.164062 291.710938 C 479.578125 290.941406 480.027344 290.195312 480.511719 289.46875 C 480.996094 288.742188 481.515625 288.042969 482.070312 287.367188 C 482.621094 286.691406 483.207031 286.046875 483.824219 285.429688 C 484.441406 284.8125 485.089844 284.226562 485.761719 283.671875 C 486.4375 283.117188 487.136719 282.597656 487.863281 282.113281 C 488.589844 281.628906 489.335938 281.179688 490.109375 280.769531 C 490.878906 280.355469 491.664062 279.984375 492.472656 279.648438 C 493.277344 279.316406 494.097656 279.023438 494.933594 278.769531 C 495.769531 278.515625 496.617188 278.304688 497.472656 278.132812 C 498.328125 277.960938 499.191406 277.835938 500.058594 277.75 C 500.929688 277.664062 501.800781 277.621094 502.671875 277.621094 C 503.542969 277.621094 504.414062 277.664062 505.285156 277.75 C 506.152344 277.835938 507.015625 277.960938 507.871094 278.132812 C 508.726562 278.304688 509.574219 278.515625 510.410156 278.769531 C 511.242188 279.023438 512.066406 279.316406 512.871094 279.648438 C 513.679688 279.984375 514.464844 280.355469 515.234375 280.769531 C 516.003906 281.179688 516.753906 281.628906 517.480469 282.113281 C 518.203125 282.597656 518.90625 283.117188 519.582031 283.671875 C 520.253906 284.226562 520.902344 284.8125 521.519531 285.429688 C 522.136719 286.046875 522.722656 286.691406 523.273438 287.367188 C 523.828125 288.042969 524.347656 288.742188 524.832031 289.46875 C 525.316406 290.195312 525.765625 290.941406 526.175781 291.710938 C 526.589844 292.480469 526.960938 293.269531 527.296875 294.078125 C 527.628906 294.882812 527.921875 295.703125 528.175781 296.539062 C 528.429688 297.375 528.640625 298.222656 528.8125 299.078125 C 528.984375 299.933594 529.109375 300.796875 529.195312 301.664062 C 529.28125 302.535156 529.324219 303.40625 529.324219 304.277344 Z M 529.324219 304.277344 " fill-opacity="1" fill-rule="nonzero"/><path fill="#ffffff" d="M 440.171875 304.277344 C 440.171875 305.152344 440.128906 306.023438 440.042969 306.890625 C 439.957031 307.757812 439.828125 308.621094 439.660156 309.476562 C 439.488281 310.335938 439.277344 311.179688 439.023438 312.015625 C 438.769531 312.851562 438.476562 313.671875 438.144531 314.476562 C 437.808594 315.285156 437.4375 316.074219 437.023438 316.84375 C 436.613281 317.613281 436.164062 318.359375 435.679688 319.085938 C 435.195312 319.8125 434.675781 320.511719 434.121094 321.1875 C 433.570312 321.863281 432.984375 322.507812 432.367188 323.125 C 431.75 323.742188 431.101562 324.328125 430.429688 324.882812 C 429.753906 325.4375 429.054688 325.957031 428.328125 326.441406 C 427.601562 326.925781 426.855469 327.375 426.085938 327.785156 C 425.3125 328.195312 424.527344 328.570312 423.71875 328.902344 C 422.914062 329.238281 422.09375 329.53125 421.257812 329.785156 C 420.421875 330.039062 419.578125 330.25 418.71875 330.421875 C 417.863281 330.589844 417.003906 330.71875 416.132812 330.804688 C 415.265625 330.890625 414.394531 330.933594 413.519531 330.933594 C 412.648438 330.933594 411.777344 330.890625 410.910156 330.804688 C 410.039062 330.71875 409.179688 330.589844 408.320312 330.421875 C 407.464844 330.25 406.621094 330.039062 405.785156 329.785156 C 404.949219 329.53125 404.128906 329.238281 403.324219 328.902344 C 402.515625 328.570312 401.726562 328.195312 400.957031 327.785156 C 400.1875 327.375 399.441406 326.925781 398.714844 326.441406 C 397.988281 325.957031 397.289062 325.4375 396.613281 324.882812 C 395.941406 324.328125 395.292969 323.742188 394.675781 323.125 C 394.058594 322.507812 393.472656 321.863281 392.921875 321.1875 C 392.367188 320.511719 391.847656 319.8125 391.363281 319.085938 C 390.878906 318.359375 390.429688 317.613281 390.015625 316.84375 C 389.605469 316.074219 389.234375 315.285156 388.898438 314.476562 C 388.566406 313.671875 388.273438 312.851562 388.019531 312.015625 C 387.765625 311.179688 387.554688 310.335938 387.382812 309.476562 C 387.210938 308.621094 387.085938 307.757812 387 306.890625 C 386.914062 306.023438 386.871094 305.152344 386.871094 304.277344 C 386.871094 303.40625 386.914062 302.535156 387 301.664062 C 387.085938 300.796875 387.210938 299.933594 387.382812 299.078125 C 387.554688 298.222656 387.765625 297.375 388.019531 296.539062 C 388.273438 295.703125 388.566406 294.882812 388.898438 294.078125 C 389.234375 293.269531 389.605469 292.484375 390.015625 291.710938 C 390.429688 290.941406 390.878906 290.195312 391.363281 289.46875 C 391.847656 288.742188 392.367188 288.042969 392.921875 287.367188 C 393.472656 286.691406 394.058594 286.046875 394.675781 285.429688 C 395.292969 284.8125 395.941406 284.226562 396.613281 283.671875 C 397.289062 283.121094 397.988281 282.601562 398.714844 282.113281 C 399.441406 281.628906 400.1875 281.183594 400.957031 280.769531 C 401.726562 280.359375 402.515625 279.984375 403.324219 279.652344 C 404.128906 279.316406 404.949219 279.023438 405.785156 278.769531 C 406.621094 278.515625 407.464844 278.304688 408.320312 278.136719 C 409.179688 277.964844 410.039062 277.835938 410.910156 277.75 C 411.777344 277.664062 412.648438 277.625 413.519531 277.621094 C 414.394531 277.625 415.265625 277.664062 416.132812 277.75 C 417.003906 277.835938 417.863281 277.964844 418.71875 278.136719 C 419.578125 278.304688 420.421875 278.515625 421.257812 278.769531 C 422.09375 279.023438 422.914062 279.316406 423.71875 279.652344 C 424.527344 279.984375 425.316406 280.359375 426.085938 280.769531 C 426.855469 281.183594 427.601562 281.628906 428.328125 282.113281 C 429.054688 282.601562 429.753906 283.121094 430.429688 283.671875 C 431.101562 284.226562 431.75 284.8125 432.367188 285.429688 C 432.984375 286.046875 433.570312 286.691406 434.121094 287.367188 C 434.675781 288.042969 435.195312 288.742188 435.679688 289.46875 C 436.164062 290.195312 436.613281 290.941406 437.023438 291.710938 C 437.4375 292.484375 437.808594 293.269531 438.144531 294.078125 C 438.476562 294.882812 438.769531 295.703125 439.023438 296.539062 C 439.277344 297.375 439.488281 298.222656 439.660156 299.078125 C 439.828125 299.933594 439.957031 300.796875 440.042969 301.664062 C 440.128906 302.535156 440.171875 303.40625 440.171875 304.277344 Z M 440.171875 304.277344 " fill-opacity="1" fill-rule="nonzero"/><path fill="#a5d8dc" d="M 516.558594 479.136719 C 516.535156 477.789062 516.5 476.4375 516.441406 475.085938 C 512.761719 383.421875 430.308594 317.457031 347.09375 302.753906 C 232.925781 282.585938 81.292969 358.058594 107.847656 492.59375 C 122.074219 564.621094 173.109375 629.914062 245.378906 649.914062 C 265.304688 655.429688 287.816406 658.984375 308.527344 658.984375 C 351.84375 658.984375 386.019531 636.460938 425.859375 665.234375 C 437.507812 673.648438 449.5625 703.1875 468.042969 696.679688 C 481.546875 691.921875 484.378906 664.539062 485.292969 653.121094 C 490 594.515625 517.597656 538.144531 516.558594 479.136719 Z M 516.558594 479.136719 " fill-opacity="1" fill-rule="nonzero"/><path fill="#ffffff" d="M 239.605469 480.027344 C 239.605469 480.898438 239.5625 481.769531 239.476562 482.636719 C 239.390625 483.507812 239.265625 484.371094 239.09375 485.226562 C 238.921875 486.082031 238.710938 486.925781 238.457031 487.761719 C 238.203125 488.597656 237.910156 489.417969 237.578125 490.226562 C 237.242188 491.03125 236.871094 491.820312 236.457031 492.589844 C 236.046875 493.359375 235.597656 494.109375 235.113281 494.835938 C 234.628906 495.558594 234.109375 496.261719 233.554688 496.933594 C 233.003906 497.609375 232.417969 498.257812 231.800781 498.875 C 231.183594 499.492188 230.535156 500.078125 229.863281 500.628906 C 229.1875 501.183594 228.488281 501.703125 227.761719 502.1875 C 227.035156 502.671875 226.289062 503.121094 225.519531 503.53125 C 224.75 503.945312 223.960938 504.316406 223.152344 504.652344 C 222.347656 504.984375 221.527344 505.277344 220.691406 505.53125 C 219.855469 505.785156 219.011719 505.996094 218.152344 506.167969 C 217.296875 506.339844 216.4375 506.464844 215.566406 506.550781 C 214.699219 506.636719 213.828125 506.679688 212.953125 506.679688 C 212.082031 506.679688 211.210938 506.636719 210.34375 506.550781 C 209.472656 506.464844 208.613281 506.339844 207.753906 506.167969 C 206.898438 505.996094 206.054688 505.785156 205.21875 505.53125 C 204.382812 505.277344 203.5625 504.984375 202.757812 504.652344 C 201.949219 504.316406 201.160156 503.945312 200.390625 503.53125 C 199.621094 503.121094 198.875 502.671875 198.148438 502.1875 C 197.421875 501.703125 196.722656 501.183594 196.046875 500.628906 C 195.375 500.078125 194.726562 499.492188 194.109375 498.875 C 193.492188 498.257812 192.90625 497.609375 192.355469 496.933594 C 191.800781 496.261719 191.28125 495.558594 190.796875 494.835938 C 190.3125 494.109375 189.863281 493.359375 189.453125 492.589844 C 189.039062 491.820312 188.667969 491.03125 188.332031 490.226562 C 188 489.417969 187.707031 488.597656 187.453125 487.761719 C 187.199219 486.925781 186.988281 486.082031 186.816406 485.226562 C 186.644531 484.371094 186.519531 483.507812 186.433594 482.636719 C 186.347656 481.769531 186.304688 480.898438 186.304688 480.027344 C 186.304688 479.152344 186.347656 478.28125 186.433594 477.414062 C 186.519531 476.542969 186.644531 475.683594 186.816406 474.824219 C 186.988281 473.96875 187.199219 473.125 187.453125 472.289062 C 187.707031 471.453125 188 470.632812 188.332031 469.824219 C 188.667969 469.019531 189.039062 468.230469 189.449219 467.460938 C 189.863281 466.691406 190.3125 465.941406 190.796875 465.21875 C 191.28125 464.492188 191.800781 463.789062 192.355469 463.117188 C 192.90625 462.441406 193.492188 461.796875 194.109375 461.179688 C 194.726562 460.558594 195.375 459.976562 196.046875 459.421875 C 196.722656 458.867188 197.421875 458.347656 198.148438 457.863281 C 198.875 457.378906 199.621094 456.929688 200.390625 456.519531 C 201.160156 456.105469 201.949219 455.734375 202.757812 455.398438 C 203.5625 455.066406 204.382812 454.773438 205.21875 454.519531 C 206.054688 454.265625 206.898438 454.054688 207.753906 453.882812 C 208.613281 453.710938 209.472656 453.585938 210.34375 453.5 C 211.210938 453.414062 212.082031 453.371094 212.953125 453.371094 C 213.828125 453.371094 214.699219 453.414062 215.566406 453.5 C 216.4375 453.585938 217.296875 453.710938 218.152344 453.882812 C 219.011719 454.054688 219.855469 454.265625 220.691406 454.519531 C 221.527344 454.773438 222.347656 455.066406 223.152344 455.398438 C 223.960938 455.734375 224.75 456.105469 225.519531 456.519531 C 226.289062 456.929688 227.035156 457.378906 227.761719 457.863281 C 228.488281 458.347656 229.1875 458.867188 229.863281 459.421875 C 230.535156 459.976562 231.183594 460.558594 231.800781 461.179688 C 232.417969 461.796875 233.003906 462.441406 233.554688 463.117188 C 234.109375 463.789062 234.628906 464.492188 235.113281 465.21875 C 235.597656 465.941406 236.046875 466.691406 236.457031 467.460938 C 236.871094 468.230469 237.242188 469.019531 237.578125 469.824219 C 237.910156 470.632812 238.203125 471.453125 238.457031 472.289062 C 238.710938 473.125 238.921875 473.96875 239.09375 474.824219 C 239.265625 475.683594 239.390625 476.542969 239.476562 477.414062 C 239.5625 478.28125 239.605469 479.152344 239.605469 480.027344 Z M 239.605469 480.027344 " fill-opacity="1" fill-rule="nonzero"/><path fill="#ffffff" d="M 333.746094 480.027344 C 333.746094 480.898438 333.703125 481.769531 333.617188 482.636719 C 333.53125 483.507812 333.402344 484.371094 333.234375 485.226562 C 333.0625 486.082031 332.851562 486.929688 332.597656 487.765625 C 332.34375 488.597656 332.050781 489.421875 331.71875 490.226562 C 331.382812 491.035156 331.011719 491.820312 330.597656 492.589844 C 330.1875 493.363281 329.738281 494.109375 329.253906 494.835938 C 328.769531 495.5625 328.25 496.261719 327.695312 496.9375 C 327.140625 497.613281 326.558594 498.257812 325.9375 498.875 C 325.320312 499.492188 324.675781 500.078125 324 500.632812 C 323.328125 501.1875 322.625 501.707031 321.902344 502.191406 C 321.175781 502.675781 320.425781 503.125 319.65625 503.535156 C 318.886719 503.945312 318.097656 504.320312 317.292969 504.652344 C 316.484375 504.988281 315.664062 505.28125 314.828125 505.535156 C 313.996094 505.789062 313.148438 506 312.292969 506.171875 C 311.4375 506.339844 310.574219 506.46875 309.707031 506.554688 C 308.835938 506.640625 307.964844 506.683594 307.09375 506.683594 C 306.21875 506.683594 305.347656 506.640625 304.480469 506.554688 C 303.613281 506.46875 302.75 506.339844 301.894531 506.171875 C 301.039062 506 300.191406 505.789062 299.355469 505.535156 C 298.519531 505.28125 297.699219 504.988281 296.894531 504.652344 C 296.085938 504.320312 295.296875 503.945312 294.527344 503.535156 C 293.757812 503.125 293.011719 502.675781 292.285156 502.191406 C 291.558594 501.707031 290.859375 501.1875 290.183594 500.632812 C 289.511719 500.078125 288.863281 499.492188 288.246094 498.875 C 287.628906 498.257812 287.042969 497.613281 286.488281 496.9375 C 285.9375 496.261719 285.417969 495.5625 284.933594 494.835938 C 284.445312 494.109375 284 493.363281 283.585938 492.589844 C 283.175781 491.820312 282.804688 491.035156 282.46875 490.226562 C 282.136719 489.421875 281.839844 488.597656 281.585938 487.765625 C 281.335938 486.929688 281.121094 486.082031 280.953125 485.226562 C 280.78125 484.371094 280.652344 483.507812 280.570312 482.636719 C 280.484375 481.769531 280.441406 480.898438 280.441406 480.027344 C 280.441406 479.152344 280.484375 478.28125 280.570312 477.414062 C 280.652344 476.542969 280.78125 475.679688 280.953125 474.824219 C 281.121094 473.96875 281.335938 473.121094 281.585938 472.289062 C 281.839844 471.453125 282.136719 470.632812 282.46875 469.824219 C 282.804688 469.019531 283.175781 468.230469 283.585938 467.460938 C 284 466.691406 284.445312 465.941406 284.933594 465.214844 C 285.417969 464.488281 285.9375 463.789062 286.488281 463.113281 C 287.042969 462.441406 287.628906 461.792969 288.246094 461.175781 C 288.863281 460.558594 289.507812 459.972656 290.183594 459.417969 C 290.859375 458.867188 291.558594 458.347656 292.285156 457.859375 C 293.011719 457.375 293.757812 456.929688 294.527344 456.515625 C 295.296875 456.105469 296.085938 455.730469 296.894531 455.398438 C 297.699219 455.0625 298.519531 454.769531 299.355469 454.515625 C 300.191406 454.261719 301.035156 454.050781 301.894531 453.878906 C 302.75 453.710938 303.613281 453.582031 304.480469 453.496094 C 305.347656 453.410156 306.21875 453.367188 307.09375 453.367188 C 307.964844 453.367188 308.835938 453.410156 309.707031 453.496094 C 310.574219 453.582031 311.4375 453.710938 312.292969 453.878906 C 313.148438 454.050781 313.996094 454.261719 314.828125 454.515625 C 315.664062 454.769531 316.484375 455.0625 317.292969 455.398438 C 318.097656 455.730469 318.886719 456.105469 319.65625 456.515625 C 320.425781 456.929688 321.175781 457.375 321.902344 457.859375 C 322.625 458.347656 323.328125 458.867188 324 459.417969 C 324.675781 459.972656 325.320312 460.558594 325.9375 461.175781 C 326.558594 461.792969 327.140625 462.441406 327.695312 463.113281 C 328.25 463.789062 328.769531 464.488281 329.253906 465.214844 C 329.738281 465.941406 330.1875 466.691406 330.597656 467.460938 C 331.011719 468.230469 331.382812 469.019531 331.71875 469.824219 C 332.050781 470.632812 332.34375 471.453125 332.597656 472.289062 C 332.851562 473.121094 333.0625 473.96875 333.234375 474.824219 C 333.402344 475.679688 333.53125 476.542969 333.617188 477.414062 C 333.703125 478.28125 333.746094 479.152344 333.746094 480.027344 Z M 333.746094 480.027344 " fill-opacity="1" fill-rule="nonzero"/><path fill="#ffffff" d="M 422.894531 480.027344 C 422.894531 480.898438 422.851562 481.769531 422.765625 482.636719 C 422.679688 483.507812 422.550781 484.371094 422.382812 485.226562 C 422.210938 486.082031 422 486.925781 421.746094 487.761719 C 421.492188 488.597656 421.199219 489.417969 420.867188 490.226562 C 420.53125 491.03125 420.160156 491.820312 419.746094 492.589844 C 419.335938 493.359375 418.886719 494.109375 418.402344 494.835938 C 417.917969 495.558594 417.398438 496.261719 416.84375 496.933594 C 416.289062 497.609375 415.707031 498.257812 415.089844 498.875 C 414.472656 499.492188 413.824219 500.078125 413.152344 500.628906 C 412.476562 501.183594 411.777344 501.703125 411.050781 502.1875 C 410.324219 502.671875 409.578125 503.121094 408.804688 503.53125 C 408.035156 503.945312 407.25 504.316406 406.441406 504.652344 C 405.636719 504.984375 404.816406 505.277344 403.980469 505.53125 C 403.144531 505.785156 402.296875 505.996094 401.441406 506.167969 C 400.585938 506.339844 399.722656 506.464844 398.855469 506.550781 C 397.988281 506.636719 397.117188 506.679688 396.242188 506.679688 C 395.371094 506.679688 394.5 506.636719 393.632812 506.550781 C 392.761719 506.464844 391.898438 506.339844 391.042969 506.167969 C 390.1875 505.996094 389.34375 505.785156 388.507812 505.53125 C 387.671875 505.277344 386.851562 504.984375 386.042969 504.652344 C 385.238281 504.316406 384.449219 503.945312 383.679688 503.53125 C 382.910156 503.121094 382.164062 502.671875 381.4375 502.1875 C 380.710938 501.703125 380.011719 501.183594 379.335938 500.628906 C 378.660156 500.078125 378.015625 499.492188 377.398438 498.875 C 376.78125 498.257812 376.195312 497.609375 375.640625 496.933594 C 375.089844 496.261719 374.570312 495.558594 374.085938 494.835938 C 373.597656 494.109375 373.152344 493.359375 372.738281 492.589844 C 372.328125 491.820312 371.957031 491.03125 371.621094 490.226562 C 371.289062 489.417969 370.992188 488.597656 370.742188 487.761719 C 370.488281 486.925781 370.273438 486.082031 370.105469 485.226562 C 369.933594 484.371094 369.808594 483.507812 369.722656 482.636719 C 369.636719 481.769531 369.59375 480.898438 369.59375 480.027344 C 369.59375 479.152344 369.636719 478.28125 369.722656 477.414062 C 369.808594 476.542969 369.933594 475.683594 370.105469 474.824219 C 370.273438 473.96875 370.488281 473.125 370.742188 472.289062 C 370.992188 471.453125 371.289062 470.632812 371.621094 469.824219 C 371.957031 469.019531 372.328125 468.230469 372.738281 467.460938 C 373.152344 466.691406 373.597656 465.941406 374.085938 465.21875 C 374.570312 464.492188 375.089844 463.789062 375.640625 463.117188 C 376.195312 462.441406 376.78125 461.796875 377.398438 461.179688 C 378.015625 460.558594 378.660156 459.976562 379.335938 459.421875 C 380.011719 458.867188 380.710938 458.347656 381.4375 457.863281 C 382.164062 457.378906 382.910156 456.929688 383.679688 456.519531 C 384.449219 456.105469 385.238281 455.734375 386.042969 455.398438 C 386.851562 455.066406 387.671875 454.773438 388.507812 454.519531 C 389.34375 454.265625 390.1875 454.054688 391.042969 453.882812 C 391.898438 453.710938 392.761719 453.585938 393.632812 453.5 C 394.5 453.414062 395.371094 453.371094 396.242188 453.371094 C 397.117188 453.371094 397.988281 453.414062 398.855469 453.5 C 399.722656 453.585938 400.585938 453.710938 401.441406 453.882812 C 402.296875 454.054688 403.144531 454.265625 403.980469 454.519531 C 404.816406 454.773438 405.636719 455.066406 406.441406 455.398438 C 407.25 455.734375 408.035156 456.105469 408.804688 456.519531 C 409.578125 456.929688 410.324219 457.378906 411.050781 457.863281 C 411.777344 458.347656 412.476562 458.867188 413.152344 459.421875 C 413.824219 459.976562 414.472656 460.558594 415.089844 461.179688 C 415.707031 461.796875 416.289062 462.441406 416.84375 463.117188 C 417.398438 463.789062 417.917969 464.492188 418.402344 465.21875 C 418.886719 465.941406 419.335938 466.691406 419.746094 467.460938 C 420.160156 468.230469 420.53125 469.019531 420.867188 469.824219 C 421.199219 470.632812 421.492188 471.453125 421.746094 472.289062 C 422 473.125 422.210938 473.96875 422.382812 474.824219 C 422.550781 475.683594 422.679688 476.542969 422.765625 477.414062 C 422.851562 478.28125 422.894531 479.152344 422.894531 480.027344 Z M 422.894531 480.027344 " fill-opacity="1" fill-rule="nonzero"/></svg>